<svg width="290" height="270" viewBox="0 0 290 270" fill="none" xmlns="http://www.w3.org/2000/svg">
<g clip-path="url(#clip0_6133_220)">
<circle cx="204.155" cy="183.131" r="68.6312" fill="white" stroke="#151617" stroke-width="19"/>
<ellipse cx="185.978" cy="154.808" rx="40.9605" ry="41.808" fill="#151617"/>
<circle cx="86.1312" cy="183.131" r="68.6312" fill="white" stroke="#151617" stroke-width="19"/>
<ellipse cx="67.9605" cy="154.808" rx="40.9605" ry="41.808" fill="#151617"/>
<path d="M222.86 70.7012C220.856 77.4162 217.355 83.6036 212.612 88.8016C207.869 93.9998 202.006 98.0743 195.457 100.718C188.909 103.363 181.846 104.507 174.795 104.066C167.744 103.625 160.89 101.611 154.742 98.1761" stroke="#151617" stroke-width="19" stroke-linecap="round"/>
<path d="M24.7826 47.3098C29.7807 39.2049 36.6717 32.4155 44.8787 27.5176C53.0861 22.6194 62.369 19.7567 71.9457 19.1763C81.5226 18.5959 91.1085 20.3153 99.8931 24.1903C108.678 28.0652 116.399 33.98 122.408 41.4318" stroke="#151617" stroke-width="19" stroke-linecap="round"/>
</g>
<defs>
<clipPath id="clip0_6133_220">
<rect width="290" height="270" fill="white"/>
</clipPath>
</defs>
</svg>
